<?xml version="1.0" encoding="utf-8"?>
<!-- Generator: Adobe Illustrator 24.3.0, SVG Export Plug-In . SVG Version: 6.00 Build 0)  -->
<svg version="1.1" id="Layer_1" xmlns="http://www.w3.org/2000/svg" xmlns:xlink="http://www.w3.org/1999/xlink" x="0px" y="0px"
	 viewBox="0 0 3306.1 2403.9" style="enable-background:new 0 0 3306.1 2403.9;" xml:space="preserve">
<style type="text/css">
	.st0{fill:#0068FF;}
	.st1{fill-rule:evenodd;clip-rule:evenodd;fill:#0068FF;}
</style>
<path class="st0" d="M1233.1,2212c-126.5,0-253.5,4.2-380.1-0.5c-149.7-6-264.2-131.6-264.2-281.4c0-483.4,0.9-966.9,0-1450.8
	c0-165.5,129.3-280.9,278.1-285.1c155.7-4.2,311.9-0.9,468.1-0.9c2.8,0,6.5-1.4,7.9,3.2c-0.9,8.3-9.3,9.3-14.4,12.5
	c-91.8,53.8-175.7,118.2-246.1,197.9c-116.3,131.6-197,282.7-224.3,458.4c-48.2,310.1,48.7,573.4,267.9,793.1
	c38.9,39.4,44,70,13,122.8c-37.5,63.5-94.6,106.6-155.3,146c-6.5,3.7-13,8.3-19.5,12.5c-9.7,8.3-3.7,12.5,4.6,16.2
	c1.9,4.2,4.2,7.9,7,11.6c53.3,47.3,103.8,97.8,156.2,146c24.6,22.7,49.1,46.4,72.8,70C1214.6,2192.6,1230.8,2195.4,1233.1,2212z"/>
<path class="st0" d="M1233.1,2212c-2.3-16.2-18.5-19-28.3-28.7c-23.6-24.1-48.2-47.3-72.8-70c-52.4-48.2-102.9-98.7-156.2-146
	c-2.8-3.7-5.1-7.4-7-11.6c118.2,23.2,233.6,7.4,347.2-27.3c38.5-11.6,76.9-23.2,115.9-32.9c26.4-7,54.2-5.6,79.7,3.7
	c293.9,101,584,91.8,869.5-33.4c116.3-51.4,222.5-123.8,312.4-214.1c4.6-4.6,7.9-11.6,16.2-12.1c4.2,6.5,1.9,13.4,1.9,20.4v271.2
	c0.9,154.8-123.3,280.9-278.1,282.3h-2.3c-166.9,0.9-333.7,0-500.6,0h-669.8C1251.7,2212.5,1242.4,2212,1233.1,2212L1233.1,2212z"/>
<g id="Page-1">
	<path id="Combined-Shape" class="st1" d="M1884,932.8v-26.6h79.6v373.6h-45.5c-18.7,0-34-15.1-34-33.8c0,0,0,0,0,0
		c-32.1,23.4-71.7,37.4-114.5,37.4c-107.2,0-194.1-86.8-194.1-193.9c0-107.1,86.9-193.9,194.1-193.9
		C1812.3,895.4,1851.9,909.3,1884,932.8C1884,932.7,1884,932.8,1884,932.8z M1554.8,786.1v12.1c0,22.6-3,41-17.7,62.7l-1.8,2
		c-3.2,3.6-10.7,12.2-14.3,16.8l-255.5,320.6h289.2v45.4c0,18.8-15.3,34-34.1,34H1146v-21.4c0-26.2,6.5-37.9,14.7-50.1l272.3-337.1
		h-275.7v-85.1H1554.8z M2060.1,1279.8c-15.7,0-28.4-12.7-28.4-28.3V786.1h85.2v493.7H2060.1z M2368.8,893
		c107.9,0,195.4,87.5,195.4,195.3c0,107.9-87.5,195.3-195.4,195.3s-195.4-87.5-195.4-195.3C2173.4,980.5,2260.8,893,2368.8,893z
		 M1769.5,1203.4c63.1,0,114.2-51.1,114.2-114.1c0-62.9-51.1-114-114.2-114c-63.1,0-114.2,51.1-114.2,114
		C1655.3,1152.4,1706.5,1203.4,1769.5,1203.4z M2368.8,1203.3c63.4,0,114.9-51.5,114.9-114.9c0-63.4-51.5-114.8-114.9-114.8
		c-63.5,0-114.9,51.4-114.9,114.8C2253.8,1151.8,2305.2,1203.3,2368.8,1203.3z"/>
</g>
</svg>
